<?xml version="1.0" encoding="UTF-8" standalone="no"?><!DOCTYPE svg PUBLIC "-//W3C//DTD SVG 1.1//EN" "http://www.w3.org/Graphics/SVG/1.1/DTD/svg11.dtd"><svg width="100%" height="100%" viewBox="0 0 19 5" version="1.1" xmlns="http://www.w3.org/2000/svg" xmlns:xlink="http://www.w3.org/1999/xlink" xml:space="preserve" xmlns:serif="http://www.serif.com/" style="fill-rule:evenodd;clip-rule:evenodd;stroke-linejoin:round;stroke-miterlimit:1.41421;"><g id="Contact_Placeholder"><g id="Contact_button"><path id="Contact_BG" d="M18.18,3.24l0,-3.24l-18.18,0l0,3.24c0,0.596 0.445,1.08 0.992,1.08l16.196,0c0.547,0 0.992,-0.484 0.992,-1.08Z" style="fill:#ebebeb;"/><text id="Contact_text" x="1.639px" y="3.259px" style="font-family:'Arial-BoldMT', 'Arial', sans-serif;font-weight:700;font-size:3.24px;fill:#442f25;">Contact</text><path id="user-alt" d="M16.931,1.917l-0.057,-0.017c0.048,-0.074 0.123,-0.22 0.123,-0.421c0,-0.419 -0.329,-0.759 -0.735,-0.759c-0.405,0 -0.734,0.34 -0.734,0.759c0,0.201 0.075,0.347 0.123,0.421l-0.058,0.017c-0.186,0.055 -0.473,0.259 -0.473,0.649l0,0.468c0,0.213 0.167,0.386 0.373,0.386l1.539,0c0.205,0 0.373,-0.173 0.373,-0.386l0,-0.468c0,-0.387 -0.284,-0.593 -0.474,-0.649Zm-0.669,-0.944c0.271,0 0.49,0.227 0.49,0.506c0,0.28 -0.219,0.507 -0.49,0.507c-0.27,0 -0.489,-0.227 -0.489,-0.507c0,-0.279 0.219,-0.506 0.489,-0.506Zm0.898,2.061c0,0.074 -0.058,0.133 -0.128,0.133l-1.539,0c-0.071,0 -0.128,-0.059 -0.128,-0.133l0,-0.468c0,-0.188 0.121,-0.354 0.296,-0.406l0.186,-0.055c0.119,0.085 0.263,0.134 0.415,0.134c0.153,0 0.296,-0.048 0.416,-0.134l0.186,0.055c0.175,0.052 0.296,0.218 0.296,0.406l0,0.468Z" style="fill:#442f25;fill-rule:nonzero;"/></g></g></svg>